<mxfile host="app.diagrams.net" modified="2023-12-28T15:42:00.038Z" agent="Mozilla/5.0 (Macintosh; Intel Mac OS X 10_15_7) AppleWebKit/605.1.15 (KHTML, like Gecko) Version/17.2.1 Safari/605.1.15" etag="wrYVfmBMCuSFTmhSWTlz" version="22.1.15" type="device">
  <diagram name="Page-1" id="SGuP-r1Nmq1y0x3puEqT">
    <mxGraphModel dx="1067" dy="1281" grid="1" gridSize="10" guides="1" tooltips="1" connect="1" arrows="1" fold="1" page="1" pageScale="1" pageWidth="827" pageHeight="1169" math="0" shadow="0">
      <root>
        <mxCell id="0" />
        <mxCell id="1" parent="0" />
        <mxCell id="66DbEu_TTLI1Fch5O3nK-3" value="" style="edgeStyle=orthogonalEdgeStyle;rounded=0;orthogonalLoop=1;jettySize=auto;html=1;" edge="1" parent="1" source="66DbEu_TTLI1Fch5O3nK-1">
          <mxGeometry relative="1" as="geometry">
            <mxPoint x="370" y="220" as="targetPoint" />
          </mxGeometry>
        </mxCell>
        <mxCell id="66DbEu_TTLI1Fch5O3nK-1" value="&lt;font style=&quot;font-size: 19px;&quot;&gt;Start&lt;/font&gt;" style="rounded=1;whiteSpace=wrap;html=1;" vertex="1" parent="1">
          <mxGeometry x="310" y="80" width="120" height="60" as="geometry" />
        </mxCell>
        <mxCell id="66DbEu_TTLI1Fch5O3nK-7" value="" style="edgeStyle=orthogonalEdgeStyle;rounded=0;orthogonalLoop=1;jettySize=auto;html=1;" edge="1" parent="1" source="66DbEu_TTLI1Fch5O3nK-5">
          <mxGeometry relative="1" as="geometry">
            <mxPoint x="370" y="360" as="targetPoint" />
          </mxGeometry>
        </mxCell>
        <mxCell id="66DbEu_TTLI1Fch5O3nK-5" value="&lt;font style=&quot;font-size: 14px;&quot;&gt;array&lt;br&gt;resultArr&lt;br&gt;j = 0&lt;br&gt;i = 0&lt;/font&gt;" style="rounded=0;whiteSpace=wrap;html=1;" vertex="1" parent="1">
          <mxGeometry x="310" y="220" width="120" height="60" as="geometry" />
        </mxCell>
        <mxCell id="66DbEu_TTLI1Fch5O3nK-27" style="edgeStyle=orthogonalEdgeStyle;rounded=0;orthogonalLoop=1;jettySize=auto;html=1;exitX=0.5;exitY=1;exitDx=0;exitDy=0;entryX=0.5;entryY=0;entryDx=0;entryDy=0;" edge="1" parent="1" source="66DbEu_TTLI1Fch5O3nK-8" target="66DbEu_TTLI1Fch5O3nK-10">
          <mxGeometry relative="1" as="geometry" />
        </mxCell>
        <mxCell id="66DbEu_TTLI1Fch5O3nK-32" style="edgeStyle=orthogonalEdgeStyle;rounded=0;orthogonalLoop=1;jettySize=auto;html=1;exitX=0;exitY=0.5;exitDx=0;exitDy=0;" edge="1" parent="1" source="66DbEu_TTLI1Fch5O3nK-8" target="66DbEu_TTLI1Fch5O3nK-29">
          <mxGeometry relative="1" as="geometry">
            <Array as="points">
              <mxPoint x="10" y="405" />
              <mxPoint x="10" y="640" />
            </Array>
          </mxGeometry>
        </mxCell>
        <mxCell id="66DbEu_TTLI1Fch5O3nK-8" value="array[i] &amp;lt;= 3" style="rhombus;whiteSpace=wrap;html=1;rounded=0;" vertex="1" parent="1">
          <mxGeometry x="60" y="365" width="110" height="80" as="geometry" />
        </mxCell>
        <mxCell id="66DbEu_TTLI1Fch5O3nK-37" style="edgeStyle=orthogonalEdgeStyle;rounded=0;orthogonalLoop=1;jettySize=auto;html=1;exitX=1;exitY=0.5;exitDx=0;exitDy=0;" edge="1" parent="1" source="66DbEu_TTLI1Fch5O3nK-10">
          <mxGeometry relative="1" as="geometry">
            <mxPoint x="370" y="450" as="targetPoint" />
          </mxGeometry>
        </mxCell>
        <mxCell id="66DbEu_TTLI1Fch5O3nK-10" value="&lt;font style=&quot;font-size: 14px;&quot;&gt;resultArr[j] = array [I]&lt;br&gt;&amp;nbsp;i+=1&lt;br&gt;&amp;nbsp;j+=1&lt;br&gt;&lt;/font&gt;" style="whiteSpace=wrap;html=1;rounded=0;" vertex="1" parent="1">
          <mxGeometry x="32.5" y="505" width="165" height="60" as="geometry" />
        </mxCell>
        <mxCell id="66DbEu_TTLI1Fch5O3nK-15" value="&lt;font style=&quot;font-size: 18px;&quot;&gt;YES&lt;/font&gt;" style="text;html=1;strokeColor=none;fillColor=none;align=center;verticalAlign=middle;whiteSpace=wrap;rounded=0;" vertex="1" parent="1">
          <mxGeometry x="120" y="450" width="60" height="30" as="geometry" />
        </mxCell>
        <mxCell id="66DbEu_TTLI1Fch5O3nK-17" value="&lt;font style=&quot;font-size: 18px;&quot;&gt;NO&lt;/font&gt;" style="text;html=1;strokeColor=none;fillColor=none;align=center;verticalAlign=middle;whiteSpace=wrap;rounded=0;" vertex="1" parent="1">
          <mxGeometry y="445" width="60" height="30" as="geometry" />
        </mxCell>
        <mxCell id="66DbEu_TTLI1Fch5O3nK-36" style="edgeStyle=orthogonalEdgeStyle;rounded=0;orthogonalLoop=1;jettySize=auto;html=1;exitX=1;exitY=0.5;exitDx=0;exitDy=0;entryX=0;entryY=0.5;entryDx=0;entryDy=0;" edge="1" parent="1" source="66DbEu_TTLI1Fch5O3nK-18" target="66DbEu_TTLI1Fch5O3nK-23">
          <mxGeometry relative="1" as="geometry" />
        </mxCell>
        <mxCell id="66DbEu_TTLI1Fch5O3nK-18" value="resultArr" style="shape=parallelogram;perimeter=parallelogramPerimeter;whiteSpace=wrap;html=1;fixedSize=1;rounded=0;" vertex="1" parent="1">
          <mxGeometry x="510" y="375" width="120" height="60" as="geometry" />
        </mxCell>
        <mxCell id="66DbEu_TTLI1Fch5O3nK-23" value="&lt;font style=&quot;font-size: 18px;&quot;&gt;End&lt;/font&gt;" style="rounded=1;whiteSpace=wrap;html=1;" vertex="1" parent="1">
          <mxGeometry x="680" y="375" width="120" height="60" as="geometry" />
        </mxCell>
        <mxCell id="66DbEu_TTLI1Fch5O3nK-25" style="edgeStyle=orthogonalEdgeStyle;rounded=0;orthogonalLoop=1;jettySize=auto;html=1;exitX=0;exitY=0.5;exitDx=0;exitDy=0;" edge="1" parent="1" source="66DbEu_TTLI1Fch5O3nK-24">
          <mxGeometry relative="1" as="geometry">
            <mxPoint x="170" y="405" as="targetPoint" />
          </mxGeometry>
        </mxCell>
        <mxCell id="66DbEu_TTLI1Fch5O3nK-34" style="edgeStyle=orthogonalEdgeStyle;rounded=0;orthogonalLoop=1;jettySize=auto;html=1;exitX=1;exitY=0.5;exitDx=0;exitDy=0;entryX=0;entryY=0.5;entryDx=0;entryDy=0;" edge="1" parent="1" source="66DbEu_TTLI1Fch5O3nK-24" target="66DbEu_TTLI1Fch5O3nK-18">
          <mxGeometry relative="1" as="geometry" />
        </mxCell>
        <mxCell id="66DbEu_TTLI1Fch5O3nK-24" value="i &amp;lt; array.Length" style="rhombus;whiteSpace=wrap;html=1;" vertex="1" parent="1">
          <mxGeometry x="305" y="360" width="130" height="90" as="geometry" />
        </mxCell>
        <mxCell id="66DbEu_TTLI1Fch5O3nK-26" value="&lt;font style=&quot;font-size: 18px;&quot;&gt;YES&lt;/font&gt;" style="text;html=1;strokeColor=none;fillColor=none;align=center;verticalAlign=middle;whiteSpace=wrap;rounded=0;" vertex="1" parent="1">
          <mxGeometry x="220" y="365" width="60" height="30" as="geometry" />
        </mxCell>
        <mxCell id="66DbEu_TTLI1Fch5O3nK-33" style="edgeStyle=orthogonalEdgeStyle;rounded=0;orthogonalLoop=1;jettySize=auto;html=1;exitX=1;exitY=0.5;exitDx=0;exitDy=0;entryX=0.5;entryY=1;entryDx=0;entryDy=0;" edge="1" parent="1" source="66DbEu_TTLI1Fch5O3nK-29" target="66DbEu_TTLI1Fch5O3nK-24">
          <mxGeometry relative="1" as="geometry" />
        </mxCell>
        <mxCell id="66DbEu_TTLI1Fch5O3nK-29" value="&lt;font style=&quot;font-size: 14px;&quot;&gt;&amp;nbsp;i+=1&lt;br&gt;&lt;/font&gt;" style="whiteSpace=wrap;html=1;rounded=0;" vertex="1" parent="1">
          <mxGeometry x="32.5" y="610" width="165" height="60" as="geometry" />
        </mxCell>
        <mxCell id="66DbEu_TTLI1Fch5O3nK-35" value="&lt;font style=&quot;font-size: 18px;&quot;&gt;NO&lt;/font&gt;" style="text;html=1;strokeColor=none;fillColor=none;align=center;verticalAlign=middle;whiteSpace=wrap;rounded=0;" vertex="1" parent="1">
          <mxGeometry x="450" y="365" width="60" height="30" as="geometry" />
        </mxCell>
      </root>
    </mxGraphModel>
  </diagram>
</mxfile>
